<svg width="14" height="13" viewBox="0 0 14 13" fill="none" xmlns="http://www.w3.org/2000/svg">
    <path d="M5.25146 0.810669C4.53193 0.810669 3.93646 1.40616 3.93646 2.12566V2.56143H1.75079C1.03101 2.56143 0.439209 3.15581 0.439209 3.87557V4.75053C0.439209 5.24747 0.720251 5.70135 1.16293 5.92283C1.21226 5.94751 1.26142 5.97249 1.31075 5.99717V10.8735C1.31075 11.593 1.90623 12.1885 2.62574 12.1885H11.3736C12.0931 12.1885 12.6886 11.593 12.6886 10.8735V5.99717C12.7381 5.97238 12.7877 5.94762 12.8372 5.92283C13.28 5.70138 13.5601 5.24747 13.5601 4.75053V3.87557C13.5601 3.15581 12.9692 2.56143 12.2494 2.56143H10.0629V2.12566C10.0629 1.40616 9.46824 0.810669 8.74871 0.810669H5.25146ZM5.25146 1.68562H8.74871C8.99866 1.68562 9.1879 1.87573 9.1879 2.12566V2.56143H4.81142V2.12566C4.81142 1.87573 5.00152 1.68562 5.25146 1.68562ZM1.75079 3.43639H12.2494C12.4964 3.43639 12.6886 3.6286 12.6886 3.87557V4.75053C12.6886 4.91597 12.593 5.06701 12.4433 5.14186C10.6941 6.01701 8.94452 6.89116 7.19533 7.76673C7.07101 7.8289 6.9283 7.8289 6.80399 7.76673C5.0548 6.89116 3.30604 6.01701 1.55683 5.14186C1.40713 5.06696 1.31075 4.91597 1.31075 4.75053V3.87557C1.31075 3.6286 1.50381 3.43639 1.75079 3.43639ZM6.99966 6.0621C6.75805 6.0621 6.56218 6.25796 6.56218 6.49958C6.56218 6.74119 6.75804 6.93706 6.99966 6.93706C7.24128 6.93706 7.43714 6.74119 7.43714 6.49958C7.43713 6.25796 7.24127 6.0621 6.99966 6.0621ZM2.18655 6.43464C3.5947 7.13905 5.00224 7.84384 6.41009 8.54855C6.77994 8.73368 7.21938 8.73368 7.58923 8.54855C8.99712 7.84381 10.4054 7.13907 11.8136 6.43464V10.8735C11.8136 11.1234 11.6235 11.3127 11.3736 11.3127H2.62574C2.37583 11.3127 2.18655 11.1234 2.18655 10.8735V6.43464Z" fill="#A36200"/>
</svg>
