<svg width="14" height="15" viewBox="0 0 14 15" fill="none" xmlns="http://www.w3.org/2000/svg">
    <path d="M12.5359 6.44413L11.9526 6.1233L6.70259 3.20663H6.63843C6.60266 3.19151 6.56555 3.17979 6.52759 3.17163H6.41676H6.31176C6.2719 3.1798 6.23286 3.19151 6.19509 3.20663H6.13093L0.880925 6.1233C0.791151 6.17418 0.71648 6.24795 0.664528 6.33711C0.612577 6.42627 0.585205 6.52761 0.585205 6.6308C0.585205 6.73399 0.612577 6.83533 0.664528 6.92448C0.71648 7.01364 0.791151 7.08742 0.880925 7.1383L2.33343 7.9433V10.7083C2.33343 11.1724 2.5178 11.6175 2.84599 11.9457C3.17418 12.2739 3.6193 12.4583 4.08343 12.4583H8.75009C9.21422 12.4583 9.65934 12.2739 9.98753 11.9457C10.3157 11.6175 10.5001 11.1724 10.5001 10.7083V7.9433L11.6668 7.28996V8.9583C11.6668 9.11301 11.7282 9.26138 11.8376 9.37078C11.947 9.48017 12.0954 9.54163 12.2501 9.54163C12.4048 9.54163 12.5532 9.48017 12.6626 9.37078C12.772 9.26138 12.8334 9.11301 12.8334 8.9583V6.95163C12.8332 6.84827 12.8056 6.74681 12.7533 6.65763C12.7011 6.56846 12.626 6.49478 12.5359 6.44413ZM9.33343 10.7083C9.33343 10.863 9.27197 11.0114 9.16257 11.1208C9.05317 11.2302 8.9048 11.2916 8.75009 11.2916H4.08343C3.92872 11.2916 3.78034 11.2302 3.67095 11.1208C3.56155 11.0114 3.50009 10.863 3.50009 10.7083V8.5908L6.13093 10.0491L6.21843 10.0841H6.27093C6.31934 10.0902 6.36834 10.0902 6.41676 10.0841C6.46518 10.0902 6.51417 10.0902 6.56259 10.0841H6.61509C6.64606 10.0776 6.67566 10.0658 6.70259 10.0491L9.33343 8.5908V10.7083ZM6.41676 8.87663L2.36843 6.62496L6.41676 4.3733L10.4651 6.62496L6.41676 8.87663Z" fill="#0055A3"/>
</svg>
